<?xml version="1.0" encoding="UTF-8" standalone="no"?>
<!-- Created with Inkscape (http://www.inkscape.org/) -->

<svg
   width="135mm"
   height="70mm"
   viewBox="0 0 135 70"
   version="1.1"
   id="svg5"
   inkscape:version="1.2.2 (732a01da63, 2022-12-09)"
   sodipodi:docname="MelonLOGO.svg"
   xmlns:inkscape="http://www.inkscape.org/namespaces/inkscape"
   xmlns:sodipodi="http://sodipodi.sourceforge.net/DTD/sodipodi-0.dtd"
   xmlns="http://www.w3.org/2000/svg"
   xmlns:svg="http://www.w3.org/2000/svg">
  <sodipodi:namedview
     id="namedview7"
     pagecolor="#ffffff"
     bordercolor="#000000"
     borderopacity="0.25"
     inkscape:showpageshadow="2"
     inkscape:pageopacity="0.0"
     inkscape:pagecheckerboard="0"
     inkscape:deskcolor="#d1d1d1"
     inkscape:document-units="mm"
     showgrid="false"
     inkscape:zoom="1.0129245"
     inkscape:cx="519.28845"
     inkscape:cy="276.92093"
     inkscape:window-width="1920"
     inkscape:window-height="991"
     inkscape:window-x="-9"
     inkscape:window-y="-9"
     inkscape:window-maximized="1"
     inkscape:current-layer="layer1" />
  <defs
     id="defs2" />
  <g
     inkscape:label="Layer 1"
     inkscape:groupmode="layer"
     id="layer1">
    <ellipse
       style="fill:#008000;stroke:#ff0000;stroke-width:0.2"
       id="path978"
       cx="67.439339"
       cy="35.148621"
       rx="64.276115"
       ry="32.876865" />
    <path
       style="fill:#000000;stroke:#000000;stroke-width:0.2;stroke-opacity:1"
       id="path2532"
       sodipodi:type="arc"
       sodipodi:cx="47.706242"
       sodipodi:cy="24.753231"
       sodipodi:rx="6.4645519"
       sodipodi:ry="6.0951495"
       sodipodi:start="0"
       sodipodi:end="6.2690804"
       sodipodi:arc-type="slice"
       d="m 54.170794,24.753231 a 6.4645519,6.0951495 0 0 1 -6.441757,6.095112 6.4645519,6.0951495 0 0 1 -6.487187,-6.052127 6.4645519,6.0951495 0 0 1 6.396006,-6.137793 6.4645519,6.0951495 0 0 1 6.532294,6.008839 l -6.463908,0.08597 z" />
    <path
       style="fill:#000000;stroke:#000000;stroke-width:0.2;stroke-opacity:1"
       id="path3990"
       sodipodi:type="arc"
       sodipodi:cx="89.989792"
       sodipodi:cy="25.282398"
       sodipodi:rx="6.4645519"
       sodipodi:ry="6.0951495"
       sodipodi:start="0"
       sodipodi:end="6.2690804"
       sodipodi:arc-type="slice"
       d="m 96.454344,25.282398 a 6.4645519,6.0951495 0 0 1 -6.441757,6.095112 6.4645519,6.0951495 0 0 1 -6.487186,-6.052126 6.4645519,6.0951495 0 0 1 6.396006,-6.137794 6.4645519,6.0951495 0 0 1 6.532294,6.00884 l -6.463909,0.08597 z" />
    <path
       style="fill:#ff0000;stroke:#000000;stroke-width:0.2;stroke-opacity:1"
       id="path4044"
       sodipodi:type="arc"
       sodipodi:cx="67.995209"
       sodipodi:cy="46.793068"
       sodipodi:rx="37.548557"
       sodipodi:ry="8.0321264"
       sodipodi:start="6.1266046"
       sodipodi:end="6.1251608"
       sodipodi:arc-type="arc"
       d="M 105.08441,45.540525 A 37.548557,8.0321264 0 0 1 73.86398,54.726479 37.548557,8.0321264 0 0 1 30.910247,48.051338 37.548557,8.0321264 0 0 1 62.099666,38.860565 37.548557,8.0321264 0 0 1 105.07591,45.529071"
       sodipodi:open="true" />
    <path
       style="fill:#ffffff;stroke:#000000;stroke-width:0.2;stroke-opacity:1"
       id="path4098"
       sodipodi:type="arc"
       sodipodi:cx="47.94429"
       sodipodi:cy="39.951313"
       sodipodi:rx="2.7486691"
       sodipodi:ry="4.4223557"
       sodipodi:start="6.1266046"
       sodipodi:end="2.9840024"
       sodipodi:arc-type="slice"
       d="m 50.659333,39.261684 a 2.7486691,4.4223557 0 0 1 -2.28504,5.057534 2.7486691,4.4223557 0 0 1 -3.144611,-3.673866 l 2.714608,-0.694039 z" />
    <path
       style="fill:#ffffff;stroke:#ffffff;stroke-width:0.2;stroke-opacity:1"
       id="path7344"
       sodipodi:type="arc"
       sodipodi:cx="45.740604"
       sodipodi:cy="22.704782"
       sodipodi:rx="1.9590552"
       sodipodi:ry="1.8284514"
       sodipodi:start="0"
       sodipodi:end="6.2690804"
       sodipodi:arc-type="slice"
       d="m 47.69966,22.704782 a 1.9590552,1.8284514 0 0 1 -1.952148,1.828441 1.9590552,1.8284514 0 0 1 -1.965914,-1.815546 1.9590552,1.8284514 0 0 1 1.938283,-1.841244 1.9590552,1.8284514 0 0 1 1.979584,1.80256 l -1.958861,0.02579 z" />
    <path
       style="fill:#ffffff;stroke:#ffffff;stroke-width:0.2;stroke-opacity:1"
       id="path7346"
       sodipodi:type="arc"
       sodipodi:cx="93.084831"
       sodipodi:cy="25.605072"
       sodipodi:rx="1.3062787"
       sodipodi:ry="1.8284514"
       sodipodi:start="0"
       sodipodi:end="6.2690804"
       sodipodi:arc-type="slice"
       d="m 94.39111,25.605072 a 1.3062787,1.8284514 0 0 1 -1.301673,1.82844 1.3062787,1.8284514 0 0 1 -1.310852,-1.815545 1.3062787,1.8284514 0 0 1 1.292428,-1.841244 1.3062787,1.8284514 0 0 1 1.319967,1.80256 l -1.306149,0.02579 z" />
  </g>
</svg>
